<mxfile host="app.diagrams.net" modified="2020-10-27T12:51:07.340Z" agent="5.0 (Macintosh; Intel Mac OS X 10_15_7) AppleWebKit/605.1.15 (KHTML, like Gecko) Version/14.0 Safari/605.1.15" etag="qIDR5s7bDAzczPq2GUbZ" version="13.8.3" type="github">
  <diagram id="HNbkrDmMATUYtOj_NLXu" name="Page-1">
    <mxGraphModel dx="925" dy="634" grid="1" gridSize="10" guides="1" tooltips="1" connect="1" arrows="1" fold="1" page="1" pageScale="1" pageWidth="827" pageHeight="1169" math="0" shadow="0">
      <root>
        <mxCell id="0" />
        <mxCell id="1" parent="0" />
        <mxCell id="SlqvBrl4iS4FzY1djbNc-5" style="edgeStyle=orthogonalEdgeStyle;rounded=0;orthogonalLoop=1;jettySize=auto;html=1;entryX=0;entryY=0.5;entryDx=0;entryDy=0;" parent="1" source="U9wraGe5h37rA607IHir-1" target="SlqvBrl4iS4FzY1djbNc-3" edge="1">
          <mxGeometry relative="1" as="geometry" />
        </mxCell>
        <mxCell id="U9wraGe5h37rA607IHir-1" value="" style="rounded=0;whiteSpace=wrap;html=1;" parent="1" vertex="1">
          <mxGeometry x="84" y="180" width="120" height="40" as="geometry" />
        </mxCell>
        <mxCell id="SlqvBrl4iS4FzY1djbNc-1" value="aedeph-co/lup2-9-2020" style="text;html=1;strokeColor=none;fillColor=none;align=center;verticalAlign=middle;whiteSpace=wrap;rounded=0;" parent="1" vertex="1">
          <mxGeometry x="74" y="150" width="140" height="20" as="geometry" />
        </mxCell>
        <mxCell id="SlqvBrl4iS4FzY1djbNc-42" style="edgeStyle=orthogonalEdgeStyle;rounded=1;orthogonalLoop=1;jettySize=auto;html=1;entryX=1;entryY=0.5;entryDx=0;entryDy=0;" parent="1" source="SlqvBrl4iS4FzY1djbNc-3" target="SlqvBrl4iS4FzY1djbNc-9" edge="1">
          <mxGeometry relative="1" as="geometry">
            <Array as="points">
              <mxPoint x="484" y="200" />
              <mxPoint x="484" y="440" />
            </Array>
          </mxGeometry>
        </mxCell>
        <mxCell id="SlqvBrl4iS4FzY1djbNc-3" value="" style="rounded=0;whiteSpace=wrap;html=1;" parent="1" vertex="1">
          <mxGeometry x="324" y="180" width="120" height="40" as="geometry" />
        </mxCell>
        <mxCell id="SlqvBrl4iS4FzY1djbNc-4" value="ditvor/lup2-9-2020&amp;nbsp;" style="text;html=1;strokeColor=none;fillColor=none;align=center;verticalAlign=middle;whiteSpace=wrap;rounded=0;" parent="1" vertex="1">
          <mxGeometry x="314" y="150" width="140" height="20" as="geometry" />
        </mxCell>
        <mxCell id="SlqvBrl4iS4FzY1djbNc-6" value="fork via GitHub" style="text;html=1;strokeColor=none;fillColor=none;align=center;verticalAlign=middle;whiteSpace=wrap;rounded=0;" parent="1" vertex="1">
          <mxGeometry x="234" y="170" width="60" height="20" as="geometry" />
        </mxCell>
        <mxCell id="SlqvBrl4iS4FzY1djbNc-7" value="origin/master" style="text;html=1;align=center;verticalAlign=middle;whiteSpace=wrap;rounded=0;fillColor=#ffffff;" parent="1" vertex="1">
          <mxGeometry x="348" y="230" width="80" height="20" as="geometry" />
        </mxCell>
        <mxCell id="SlqvBrl4iS4FzY1djbNc-8" value="central/master" style="text;html=1;strokeColor=none;align=center;verticalAlign=middle;whiteSpace=wrap;rounded=0;fillColor=#ffffff;" parent="1" vertex="1">
          <mxGeometry x="104" y="230" width="80" height="20" as="geometry" />
        </mxCell>
        <mxCell id="SlqvBrl4iS4FzY1djbNc-50" style="edgeStyle=orthogonalEdgeStyle;curved=1;orthogonalLoop=1;jettySize=auto;html=1;entryX=0.5;entryY=1;entryDx=0;entryDy=0;exitX=0.5;exitY=0;exitDx=0;exitDy=0;fillColor=#dae8fc;strokeColor=#6c8ebf;dashed=1;" parent="1" source="SlqvBrl4iS4FzY1djbNc-9" target="SlqvBrl4iS4FzY1djbNc-3" edge="1">
          <mxGeometry relative="1" as="geometry">
            <Array as="points">
              <mxPoint x="334" y="420" />
              <mxPoint x="334" y="270" />
              <mxPoint x="384" y="270" />
            </Array>
          </mxGeometry>
        </mxCell>
        <mxCell id="SlqvBrl4iS4FzY1djbNc-51" style="edgeStyle=orthogonalEdgeStyle;curved=1;orthogonalLoop=1;jettySize=auto;html=1;dashed=1;fillColor=#dae8fc;strokeColor=#6c8ebf;" parent="1" source="SlqvBrl4iS4FzY1djbNc-9" target="U9wraGe5h37rA607IHir-1" edge="1">
          <mxGeometry relative="1" as="geometry" />
        </mxCell>
        <mxCell id="SlqvBrl4iS4FzY1djbNc-9" value="" style="rounded=0;whiteSpace=wrap;html=1;" parent="1" vertex="1">
          <mxGeometry x="314" y="420" width="120" height="40" as="geometry" />
        </mxCell>
        <mxCell id="SlqvBrl4iS4FzY1djbNc-15" value="git clone" style="text;html=1;strokeColor=#6c8ebf;fillColor=#dae8fc;align=center;verticalAlign=middle;whiteSpace=wrap;rounded=0;" parent="1" vertex="1">
          <mxGeometry x="374" y="310" width="100" height="20" as="geometry" />
        </mxCell>
        <mxCell id="SlqvBrl4iS4FzY1djbNc-16" value="local folder /lup2-9-2020" style="text;html=1;strokeColor=none;fillColor=none;align=center;verticalAlign=middle;whiteSpace=wrap;rounded=0;" parent="1" vertex="1">
          <mxGeometry x="304" y="370" width="140" height="20" as="geometry" />
        </mxCell>
        <mxCell id="SlqvBrl4iS4FzY1djbNc-17" value="&lt;h1&gt;Создание репозитория&lt;/h1&gt;&lt;p&gt;1. Создали fork от репозитория aedeph-co/lup2-9-2020 через страницу GitHub-а. Получили собственный репозиторий, с пометкой &quot;forked from aedeph-co/lup2-9-2020&quot;.&lt;/p&gt;&lt;p&gt;2. С помощью команды &lt;u&gt;git clone&amp;nbsp;https://github.com/ditvor/lup2-9-2020.git&amp;nbsp;&lt;/u&gt;создали локальную папку lup2-9-2020. Эта папка связана с нашим репозиторием и называет его origin. Это можно проверить через команду &lt;u&gt;git remote show origin&lt;/u&gt;.&lt;/p&gt;&lt;p&gt;3. Правки будут приходить в централизованный репозиторий, созданный Русланом. Поэтому необходимо дополнительно создать связь с ним. Используем команду &lt;u&gt;git remote add central&amp;nbsp;https://github.com/aedeph-co/lup2-9-2020.git&lt;/u&gt;.&lt;/p&gt;&lt;p&gt;4. Команда&amp;nbsp;&lt;u&gt;git remote show&lt;/u&gt;&amp;nbsp;теперь покажет два объекта: origin и central.&lt;/p&gt;" style="text;html=1;strokeColor=none;fillColor=none;spacing=5;spacingTop=-20;whiteSpace=wrap;overflow=hidden;rounded=0;" parent="1" vertex="1">
          <mxGeometry x="524" y="150" width="280" height="370" as="geometry" />
        </mxCell>
        <mxCell id="SlqvBrl4iS4FzY1djbNc-20" value="" style="rounded=0;whiteSpace=wrap;html=1;" parent="1" vertex="1">
          <mxGeometry x="84" y="640" width="120" height="40" as="geometry" />
        </mxCell>
        <mxCell id="SlqvBrl4iS4FzY1djbNc-21" value="aedeph-co/lup2-9-2020" style="text;html=1;strokeColor=none;fillColor=none;align=center;verticalAlign=middle;whiteSpace=wrap;rounded=0;" parent="1" vertex="1">
          <mxGeometry x="74" y="610" width="140" height="20" as="geometry" />
        </mxCell>
        <mxCell id="SlqvBrl4iS4FzY1djbNc-22" value="" style="rounded=0;whiteSpace=wrap;html=1;" parent="1" vertex="1">
          <mxGeometry x="324" y="640" width="120" height="40" as="geometry" />
        </mxCell>
        <mxCell id="SlqvBrl4iS4FzY1djbNc-23" value="ditvor/lup2-9-2020&amp;nbsp;" style="text;html=1;strokeColor=none;fillColor=none;align=center;verticalAlign=middle;whiteSpace=wrap;rounded=0;" parent="1" vertex="1">
          <mxGeometry x="314" y="600" width="140" height="20" as="geometry" />
        </mxCell>
        <mxCell id="SlqvBrl4iS4FzY1djbNc-62" style="edgeStyle=orthogonalEdgeStyle;rounded=1;orthogonalLoop=1;jettySize=auto;html=1;entryX=0.5;entryY=1;entryDx=0;entryDy=0;fillColor=#dae8fc;strokeColor=#6c8ebf;" parent="1" source="SlqvBrl4iS4FzY1djbNc-27" target="SlqvBrl4iS4FzY1djbNc-22" edge="1">
          <mxGeometry relative="1" as="geometry" />
        </mxCell>
        <mxCell id="SlqvBrl4iS4FzY1djbNc-63" style="edgeStyle=orthogonalEdgeStyle;rounded=1;orthogonalLoop=1;jettySize=auto;html=1;entryX=0.75;entryY=1;entryDx=0;entryDy=0;fillColor=#dae8fc;strokeColor=#6c8ebf;" parent="1" source="SlqvBrl4iS4FzY1djbNc-27" target="SlqvBrl4iS4FzY1djbNc-20" edge="1">
          <mxGeometry relative="1" as="geometry">
            <Array as="points">
              <mxPoint x="374" y="790" />
              <mxPoint x="174" y="790" />
            </Array>
          </mxGeometry>
        </mxCell>
        <mxCell id="SlqvBrl4iS4FzY1djbNc-27" value="" style="rounded=0;whiteSpace=wrap;html=1;" parent="1" vertex="1">
          <mxGeometry x="314" y="880" width="120" height="40" as="geometry" />
        </mxCell>
        <mxCell id="SlqvBrl4iS4FzY1djbNc-30" value="" style="shape=link;html=1;" parent="1" edge="1">
          <mxGeometry width="100" relative="1" as="geometry">
            <mxPoint x="44" y="570" as="sourcePoint" />
            <mxPoint x="804" y="570" as="targetPoint" />
          </mxGeometry>
        </mxCell>
        <mxCell id="SlqvBrl4iS4FzY1djbNc-31" value="&lt;h1&gt;Скачивание обновлений&lt;/h1&gt;&lt;p&gt;1. Руслан заливает обновления в свой репозиторий (aedeph-co/lup2-9-2020).&lt;/p&gt;&lt;p&gt;2. Проверяем наличие обновлений командой &lt;u&gt;git remote update&lt;/u&gt;. Так как Руслан внес изменения только в репозитории aedeph-co/lup2-9-2020 (для нас это связь central/master), соответственно только там мы и обнаружим изменения.&amp;nbsp;&lt;/p&gt;&lt;p&gt;3. Теперь необходимо объединить ветку централизованного репозитория (central/master) с нашей локальной веткой (master). Делается это командой &lt;u&gt;git merge central/master&lt;/u&gt;. Слияние веток - устраняет разницу между ветками. А так как разница между ветками это разница в имеющихся в файлах, соответственно объединяя ветки - скачиваем файлы.&lt;/p&gt;&lt;p&gt;P.S. Мы находимся в состоянии/ветке master. Командой git merge central/master&amp;nbsp;мы объединяем нашу ветку master с веткой central/master, которая находится на удаленном репозитории.&lt;/p&gt;&lt;p&gt;&lt;br&gt;&lt;/p&gt;" style="text;html=1;strokeColor=none;fillColor=none;spacing=5;spacingTop=-20;whiteSpace=wrap;overflow=hidden;rounded=0;" parent="1" vertex="1">
          <mxGeometry x="524" y="610" width="280" height="430" as="geometry" />
        </mxCell>
        <mxCell id="SlqvBrl4iS4FzY1djbNc-33" value="git remote add central" style="text;html=1;strokeColor=#6c8ebf;fillColor=#dae8fc;align=center;verticalAlign=middle;whiteSpace=wrap;rounded=0;" parent="1" vertex="1">
          <mxGeometry x="74" y="300" width="160" height="20" as="geometry" />
        </mxCell>
        <mxCell id="SlqvBrl4iS4FzY1djbNc-39" value="1" style="ellipse;whiteSpace=wrap;html=1;aspect=fixed;fillColor=#ffe6cc;strokeColor=#d79b00;" parent="1" vertex="1">
          <mxGeometry x="254" y="140" width="20" height="20" as="geometry" />
        </mxCell>
        <mxCell id="SlqvBrl4iS4FzY1djbNc-40" value="2" style="ellipse;whiteSpace=wrap;html=1;aspect=fixed;fillColor=#ffe6cc;strokeColor=#d79b00;" parent="1" vertex="1">
          <mxGeometry x="408" y="280" width="20" height="20" as="geometry" />
        </mxCell>
        <mxCell id="SlqvBrl4iS4FzY1djbNc-41" value="3" style="ellipse;whiteSpace=wrap;html=1;aspect=fixed;fillColor=#ffe6cc;strokeColor=#d79b00;" parent="1" vertex="1">
          <mxGeometry x="104" y="270" width="20" height="20" as="geometry" />
        </mxCell>
        <mxCell id="SlqvBrl4iS4FzY1djbNc-54" value="origin/master" style="text;html=1;align=center;verticalAlign=middle;whiteSpace=wrap;rounded=0;fillColor=#ffffff;" parent="1" vertex="1">
          <mxGeometry x="348" y="690" width="80" height="20" as="geometry" />
        </mxCell>
        <mxCell id="SlqvBrl4iS4FzY1djbNc-58" style="edgeStyle=orthogonalEdgeStyle;rounded=1;orthogonalLoop=1;jettySize=auto;html=1;entryX=0;entryY=0.5;entryDx=0;entryDy=0;fillColor=#ffe6cc;strokeColor=#d79b00;" parent="1" source="SlqvBrl4iS4FzY1djbNc-56" target="SlqvBrl4iS4FzY1djbNc-20" edge="1">
          <mxGeometry relative="1" as="geometry">
            <Array as="points">
              <mxPoint x="64" y="660" />
            </Array>
          </mxGeometry>
        </mxCell>
        <mxCell id="SlqvBrl4iS4FzY1djbNc-56" value="Руслан залил&amp;nbsp;&lt;br&gt;обновления" style="text;html=1;strokeColor=#d79b00;fillColor=#ffe6cc;align=center;verticalAlign=middle;whiteSpace=wrap;rounded=0;" parent="1" vertex="1">
          <mxGeometry x="34" y="750" width="90" height="30" as="geometry" />
        </mxCell>
        <mxCell id="SlqvBrl4iS4FzY1djbNc-60" value="&lt;font style=&quot;font-size: 8px&quot;&gt;forked from aedeph-co/lup2-9-2020&lt;/font&gt;" style="text;whiteSpace=wrap;html=1;" parent="1" vertex="1">
          <mxGeometry x="319" y="610" width="135" height="20" as="geometry" />
        </mxCell>
        <mxCell id="SlqvBrl4iS4FzY1djbNc-64" value="git remote update" style="text;html=1;strokeColor=#6c8ebf;fillColor=#dae8fc;align=center;verticalAlign=middle;whiteSpace=wrap;rounded=0;" parent="1" vertex="1">
          <mxGeometry x="184" y="755" width="160" height="20" as="geometry" />
        </mxCell>
        <mxCell id="SlqvBrl4iS4FzY1djbNc-70" style="edgeStyle=orthogonalEdgeStyle;rounded=1;orthogonalLoop=1;jettySize=auto;html=1;entryX=0;entryY=0.5;entryDx=0;entryDy=0;fillColor=#ffe6cc;strokeColor=#d79b00;" parent="1" source="SlqvBrl4iS4FzY1djbNc-68" target="SlqvBrl4iS4FzY1djbNc-29" edge="1">
          <mxGeometry relative="1" as="geometry">
            <Array as="points">
              <mxPoint x="134" y="900" />
            </Array>
          </mxGeometry>
        </mxCell>
        <mxCell id="SlqvBrl4iS4FzY1djbNc-68" value="" style="rounded=0;whiteSpace=wrap;html=1;fillColor=#ffe6cc;" parent="1" vertex="1">
          <mxGeometry x="84" y="640" width="60" height="40" as="geometry" />
        </mxCell>
        <mxCell id="SlqvBrl4iS4FzY1djbNc-69" value="master" style="text;html=1;align=center;verticalAlign=middle;whiteSpace=wrap;rounded=0;fillColor=#ffffff;" parent="1" vertex="1">
          <mxGeometry x="334" y="930" width="80" height="20" as="geometry" />
        </mxCell>
        <mxCell id="SlqvBrl4iS4FzY1djbNc-52" value="central/master" style="text;html=1;strokeColor=none;align=center;verticalAlign=middle;whiteSpace=wrap;rounded=0;fillColor=#ffffff;" parent="1" vertex="1">
          <mxGeometry x="104" y="690" width="80" height="20" as="geometry" />
        </mxCell>
        <mxCell id="SlqvBrl4iS4FzY1djbNc-72" value="git merge central/master" style="text;html=1;strokeColor=#6c8ebf;fillColor=#dae8fc;align=center;verticalAlign=middle;whiteSpace=wrap;rounded=0;" parent="1" vertex="1">
          <mxGeometry x="104" y="920" width="160" height="20" as="geometry" />
        </mxCell>
        <mxCell id="SlqvBrl4iS4FzY1djbNc-73" value="1" style="ellipse;whiteSpace=wrap;html=1;aspect=fixed;fillColor=#ffe6cc;strokeColor=#d79b00;" parent="1" vertex="1">
          <mxGeometry x="24" y="715" width="20" height="20" as="geometry" />
        </mxCell>
        <mxCell id="SlqvBrl4iS4FzY1djbNc-74" value="2" style="ellipse;whiteSpace=wrap;html=1;aspect=fixed;fillColor=#ffe6cc;strokeColor=#d79b00;" parent="1" vertex="1">
          <mxGeometry x="354" y="750" width="20" height="20" as="geometry" />
        </mxCell>
        <mxCell id="SlqvBrl4iS4FzY1djbNc-75" value="3" style="ellipse;whiteSpace=wrap;html=1;aspect=fixed;fillColor=#ffe6cc;strokeColor=#d79b00;" parent="1" vertex="1">
          <mxGeometry x="94" y="880" width="20" height="20" as="geometry" />
        </mxCell>
        <mxCell id="SlqvBrl4iS4FzY1djbNc-76" value="выкачиваем обновления" style="text;html=1;align=center;verticalAlign=middle;resizable=0;points=[];autosize=1;fillColor=#ffe6cc;strokeColor=#d79b00;" parent="1" vertex="1">
          <mxGeometry x="144" y="870" width="160" height="20" as="geometry" />
        </mxCell>
        <mxCell id="SlqvBrl4iS4FzY1djbNc-77" value="&lt;h1&gt;LevelUp git interaction tutorial&lt;/h1&gt;&lt;p&gt;Небольшой наглядный гайд по взаимодействию между учителем и студентом с помощью git-а. Условные обозначения приведены внизу страницы.&lt;/p&gt;" style="text;html=1;strokeColor=none;fillColor=none;spacing=5;spacingTop=-20;whiteSpace=wrap;overflow=hidden;rounded=0;" parent="1" vertex="1">
          <mxGeometry x="89" y="30" width="590" height="90" as="geometry" />
        </mxCell>
        <mxCell id="NuVvsrZKpdhQDF9qkC_Z-1" value="" style="shape=link;html=1;" edge="1" parent="1">
          <mxGeometry width="100" relative="1" as="geometry">
            <mxPoint x="44" y="1050" as="sourcePoint" />
            <mxPoint x="803.9999999999998" y="1050" as="targetPoint" />
          </mxGeometry>
        </mxCell>
        <mxCell id="NuVvsrZKpdhQDF9qkC_Z-2" value="git clone" style="text;html=1;strokeColor=#6c8ebf;fillColor=#dae8fc;align=center;verticalAlign=middle;whiteSpace=wrap;rounded=0;" vertex="1" parent="1">
          <mxGeometry x="34" y="1080" width="100" height="20" as="geometry" />
        </mxCell>
        <mxCell id="NuVvsrZKpdhQDF9qkC_Z-3" value="Руслан залил&amp;nbsp;&lt;br&gt;обновления" style="text;html=1;strokeColor=#d79b00;fillColor=#ffe6cc;align=center;verticalAlign=middle;whiteSpace=wrap;rounded=0;" vertex="1" parent="1">
          <mxGeometry x="39" y="1120" width="90" height="30" as="geometry" />
        </mxCell>
        <mxCell id="NuVvsrZKpdhQDF9qkC_Z-4" value="выполняемый код" style="text;html=1;align=center;verticalAlign=middle;whiteSpace=wrap;rounded=0;fillColor=#ffffff;" vertex="1" parent="1">
          <mxGeometry x="160" y="1080" width="120" height="20" as="geometry" />
        </mxCell>
        <mxCell id="NuVvsrZKpdhQDF9qkC_Z-5" value="изменение состояния" style="text;html=1;align=center;verticalAlign=middle;whiteSpace=wrap;rounded=0;fillColor=#ffffff;" vertex="1" parent="1">
          <mxGeometry x="160" y="1125" width="130" height="20" as="geometry" />
        </mxCell>
        <mxCell id="NuVvsrZKpdhQDF9qkC_Z-6" value="" style="rounded=0;whiteSpace=wrap;html=1;fillColor=#ffe6cc;" vertex="1" parent="1">
          <mxGeometry x="314" y="880" width="60" height="40" as="geometry" />
        </mxCell>
        <mxCell id="SlqvBrl4iS4FzY1djbNc-29" value="local /lup2-9-2020" style="text;html=1;strokeColor=none;fillColor=none;align=center;verticalAlign=middle;whiteSpace=wrap;rounded=0;" parent="1" vertex="1">
          <mxGeometry x="304" y="890" width="140" height="20" as="geometry" />
        </mxCell>
        <mxCell id="NuVvsrZKpdhQDF9qkC_Z-7" value="" style="endArrow=classic;html=1;dashed=1;fillColor=#dae8fc;strokeColor=#6c8ebf;" edge="1" parent="1">
          <mxGeometry width="50" height="50" relative="1" as="geometry">
            <mxPoint x="324" y="1089.8200000000002" as="sourcePoint" />
            <mxPoint x="390" y="1089.41" as="targetPoint" />
          </mxGeometry>
        </mxCell>
        <mxCell id="NuVvsrZKpdhQDF9qkC_Z-8" value="связь через remote" style="text;html=1;align=center;verticalAlign=middle;whiteSpace=wrap;rounded=0;fillColor=#ffffff;" vertex="1" parent="1">
          <mxGeometry x="414" y="1080" width="120" height="20" as="geometry" />
        </mxCell>
        <mxCell id="NuVvsrZKpdhQDF9qkC_Z-9" value="" style="endArrow=classic;html=1;fillColor=#dae8fc;strokeColor=#6c8ebf;" edge="1" parent="1">
          <mxGeometry width="50" height="50" relative="1" as="geometry">
            <mxPoint x="323.9999999999998" y="1134.8200000000002" as="sourcePoint" />
            <mxPoint x="390" y="1134.41" as="targetPoint" />
          </mxGeometry>
        </mxCell>
        <mxCell id="NuVvsrZKpdhQDF9qkC_Z-10" value="отправка update" style="text;html=1;align=center;verticalAlign=middle;whiteSpace=wrap;rounded=0;fillColor=#ffffff;" vertex="1" parent="1">
          <mxGeometry x="414" y="1125" width="120" height="20" as="geometry" />
        </mxCell>
        <mxCell id="NuVvsrZKpdhQDF9qkC_Z-11" value="" style="endArrow=classic;html=1;fillColor=#dae8fc;" edge="1" parent="1">
          <mxGeometry width="50" height="50" relative="1" as="geometry">
            <mxPoint x="579.9999999999998" y="1089.8200000000002" as="sourcePoint" />
            <mxPoint x="646" y="1089.41" as="targetPoint" />
          </mxGeometry>
        </mxCell>
        <mxCell id="NuVvsrZKpdhQDF9qkC_Z-12" value="создание репозитория" style="text;html=1;align=center;verticalAlign=middle;whiteSpace=wrap;rounded=0;fillColor=#ffffff;" vertex="1" parent="1">
          <mxGeometry x="660" y="1080" width="140" height="20" as="geometry" />
        </mxCell>
        <mxCell id="NuVvsrZKpdhQDF9qkC_Z-13" value="" style="endArrow=classic;html=1;fillColor=#ffe6cc;strokeColor=#d79b00;" edge="1" parent="1">
          <mxGeometry width="50" height="50" relative="1" as="geometry">
            <mxPoint x="579.9999999999998" y="1134.8200000000002" as="sourcePoint" />
            <mxPoint x="646" y="1134.41" as="targetPoint" />
          </mxGeometry>
        </mxCell>
        <mxCell id="NuVvsrZKpdhQDF9qkC_Z-14" value="перемещение данных" style="text;html=1;align=center;verticalAlign=middle;whiteSpace=wrap;rounded=0;fillColor=#ffffff;" vertex="1" parent="1">
          <mxGeometry x="660" y="1125" width="140" height="20" as="geometry" />
        </mxCell>
      </root>
    </mxGraphModel>
  </diagram>
</mxfile>
